<?xml version="1.0" encoding="utf-8"?>
<!-- Generator: Adobe Illustrator 25.4.1, SVG Export Plug-In . SVG Version: 6.00 Build 0)  -->
<svg version="1.1" id="Layer_1" xmlns="http://www.w3.org/2000/svg" xmlns:xlink="http://www.w3.org/1999/xlink" x="0px" y="0px"
	 viewBox="0 0 72.9 72.2" style="enable-background:new 0 0 72.9 72.2;" xml:space="preserve">
<style type="text/css">
	.st0{fill:#010101;}
</style>
<path class="st0" d="M47.5,51.2l3.8-15.5c0.1-0.3,0.2-0.9,0.3-1.7c1.1-0.7,2.1-1.3,3-1.9c10.1-6.7,19.9-16,17.4-20.6l-1.8-0.7
	c-4,1.4-8.3,3.4-12.5,5.9c-4,2.3-7.6,4.8-10.6,7.3c-0.5-0.4-1.1-0.8-1.6-1.1c1.3-9.9,9.9-17.6,20-17.6c1.1,0,2.2,0.1,3.3,0.3
	l0.9-2.8c-3.2-1.5-6.6-2.2-10.1-2.2c-11.4,0-21.1,7.9-23.5,18.8C33.6,8.3,24,0.4,12.6,0.4c-3.5,0-6.9,0.7-10.1,2.2l0.9,2.8
	c1.1-0.2,2.2-0.3,3.3-0.3c10.1,0,18.7,7.6,20,17.5c-0.4,0.3-0.8,0.5-1.2,0.8c-2.9-2.4-6.4-4.8-10.2-7c-4.2-2.5-8.6-4.5-12.5-5.9
	l-1.8,0.7c-2.4,4.7,7.3,14,17.4,20.6c0.7,0.5,1.4,0.9,2.2,1.4c0.1,0.6,0.2,1.2,0.3,1.8l4,17l0,0c0.3,1.3,0.8,2.5,1.4,3.5
	c-8.6,0.1-15.9,0.5-20.7,1c4.5-0.2,10.7-0.3,17.8-0.3c-8,0.3-14.9,0.7-19.6,1.1c4.4-0.2,10.2-0.4,16.8-0.7
	c-5.7,0.6-10.5,1.3-13.9,1.9c1.4-0.2,2.9-0.3,4.6-0.5c-1.1,0.2-2.2,0.4-3.1,0.6c3.9-0.5,9.1-1,15.1-1.6c-7.5,0.9-13.9,1.7-18.4,2.4
	c3.5-0.4,7.8-0.9,12.8-1.5c-4.5,0.7-8.4,1.5-11.3,2.1c2.9-0.5,6.5-1,10.6-1.5c-3,0.6-5.6,1.3-7.6,1.8c4.2-0.8,9.8-1.8,16.3-2.9
	c-7.4,1.6-13.7,3.2-18,4.5c5-1.2,12.1-2.6,20.3-4.2c2.1,2.4,5.1,3.8,8.2,3.8c1.6,0,3.1-0.4,4.6-1c4.5,3.3,8.4,6.3,11.3,8.6
	c-2.1-2-5.1-4.7-8.7-7.5c5.8,3.8,11,7.2,14.8,9.8C54.2,69,48.3,65,41.4,60.5c0,0,0,0,0,0c4.8,2.8,9,5.4,12.1,7.4
	c-1.2-1-2.6-2-4.3-3.2c2,1.2,3.9,2.3,5.4,3.3c-1.2-0.9-2.7-2-4.4-3.2c1.3,0.7,2.4,1.3,3.4,1.9c-0.9-0.6-1.9-1.3-3-2
	c3.5,1.8,6.6,3.5,9.2,4.8c-3.4-2-8.2-4.7-14-7.7c-1-0.5-2-1.1-3-1.7c-0.2-0.1-0.4-0.2-0.6-0.3c0,0,0.1,0,0.1-0.1
	c0.2,0.1,0.3,0.1,0.5,0.2c5.3,2.3,10,4.4,13.4,6.1c-1.3-0.8-2.8-1.7-4.7-2.7c1.3,0.5,2.5,1,3.6,1.5c-2.7-1.5-6.7-3.4-11.4-5.3
	c-0.3-0.1-0.5-0.2-0.8-0.4C45.4,57.3,47,54.5,47.5,51.2z M58,3.4C50.2,6.1,44.1,13,42.7,21.4c-0.2-0.1-0.4-0.1-0.6-0.2
	c-0.3-0.1-0.5-0.2-0.8-0.2c-0.2-0.1-0.5-0.1-0.7-0.2c-0.5-0.1-0.9-0.2-1.4-0.3c-0.1,0-0.2,0-0.3-0.1C40.6,11.1,48.5,4.1,58,3.4z
	 M29.5,21.4C28,13,22,6.1,14.1,3.4c9.5,0.7,17.4,7.7,19.1,17c0,0-0.1,0-0.1,0c-0.6,0.1-1.2,0.2-1.8,0.3c-0.1,0-0.1,0-0.2,0
	c-0.6,0.1-1.1,0.3-1.7,0.5C29.5,21.3,29.5,21.4,29.5,21.4z M23.6,34.5c-0.2-0.6-0.3-1.3-0.3-1.9l-0.7-1.3c-1-0.6-1.9-1.2-2.8-1.7
	c-9.8-6.4-15-12.4-16.2-15.3c3.2,1.3,6.6,2.9,10,4.9c3.5,2,6.7,4.2,9.5,6.4c-0.4,0.4-0.7,0.8-1,1.3l2.5,1.7c1-1.6,2.6-2.8,4.4-3.7
	c0.3-0.1,0.6-0.3,0.9-0.4c0.2-0.1,0.4-0.2,0.6-0.2c0.3-0.1,0.6-0.2,0.9-0.3c0.2-0.1,0.4-0.1,0.6-0.2c0.3-0.1,0.6-0.1,0.9-0.2
	c0.3,0,0.5-0.1,0.8-0.1c0.3,0,0.5-0.1,0.8-0.1c0.5,0,0.9-0.1,1.4-0.1c0.4,0,0.7,0,1.1,0c0.4,0,0.9,0.1,1.3,0.1c0.1,0,0.2,0,0.3,0
	c0.4,0.1,0.8,0.2,1.2,0.3c0.1,0,0.3,0.1,0.4,0.1c0.4,0.1,0.8,0.2,1.1,0.4c0.1,0.1,0.3,0.1,0.4,0.2c0.4,0.1,0.7,0.3,1.1,0.5
	c2,1,3.6,2.4,4.6,4l2.6-1.6c-0.3-0.5-0.6-0.9-0.9-1.3c2.8-2.3,6.2-4.7,9.9-6.8c3.4-1.9,6.8-3.6,10-4.9C68,17.1,62.8,23.1,53,29.6
	c-1.1,0.7-2.2,1.4-3.5,2.2l-0.7,1.1c-0.2,1.2-0.3,1.9-0.4,2l-3.8,15.7l0.1,0l-0.1,0.1c-0.7,4.5-4,7.9-7.9,8.3v-1.4
	c3.3-0.2,6-2.7,6-5.7c0-0.4,0-0.7-0.1-1.1l-0.4-0.6c-1.7-1.2-3.8-1.8-6-1.8c-2.2,0-4.3,0.7-6,1.8l-0.4,0.6c-0.1,0.4-0.1,0.8-0.1,1.1
	c0,3,2.6,5.5,6,5.7v1.4c-3.8-0.2-7.1-3.2-8-7.4L23.6,34.5z M36.2,55.6c-2.5,0-4.5-1.7-4.5-3.7c0-0.1,0-0.2,0-0.3
	c2.6-1.6,6.3-1.6,8.9,0c0,0.1,0,0.2,0,0.3C40.6,53.9,38.6,55.6,36.2,55.6z"/>
</svg>
